<?xml version="1.0" standalone="no"?>
 <!DOCTYPE svg PUBLIC "-//W3C//DTD SVG 1.1//EN" 
 "http://www.w3.org/Graphics/SVG/1.1/DTD/svg11.dtd"> 
<svg
  xmlns:svg="http://www.w3.org/2000/svg"
  xmlns="http://www.w3.org/2000/svg"
  xmlns:xlink="http://www.w3.org/1999/xlink"
  version="1.1"
  width="31.3436mm" height="17.0180mm" viewBox="0.0000 0.0000 31.3436 17.0180">
<title>SVG Image created as osc-F_Cu.svg date 2024/01/10 15:37:36 </title>
  <desc>Image generated by PCBNEW </desc>
<g style="fill:#000000; fill-opacity:1.0000;stroke:#000000; stroke-opacity:1.0000;
stroke-linecap:round; stroke-linejoin:round;"
 transform="translate(0 0) scale(1 1)">
</g>
<g style="fill:#000000; fill-opacity:0.0; 
stroke:#000000; stroke-width:0.0000; stroke-opacity:1; 
stroke-linecap:round; stroke-linejoin:round;">
<g >
</g>
<g style="fill:#000000; fill-opacity:0.0; 
stroke:#000000; stroke-width:0.0000; stroke-opacity:1; 
stroke-linecap:round; stroke-linejoin:round;">
</g>
<g style="fill:#000000; fill-opacity:1.0000; 
stroke:#000000; stroke-width:0.0000; stroke-opacity:1; 
stroke-linecap:round; stroke-linejoin:round;">
<path style="fill:#000000; fill-opacity:1.0000; 
stroke:#000000; stroke-width:0.0000; stroke-opacity:1; 
stroke-linecap:round; stroke-linejoin:round;fill-rule:evenodd;"
d="M 22.5226,4.1500
22.4269,4.1310
22.3458,4.0768
22.2917,3.9957
22.2726,3.9000
22.2726,3.2000
22.2917,3.1043
22.3458,3.0232
22.4269,2.9690
22.5226,2.9500
23.4226,2.9500
23.5183,2.9690
23.5994,3.0232
23.6536,3.1043
23.6726,3.2000
23.6726,3.9000
23.6536,3.9957
23.5994,4.0768
23.5183,4.1310
23.4226,4.1500
Z" /> 
<path style="fill:#000000; fill-opacity:1.0000; 
stroke:#000000; stroke-width:0.0000; stroke-opacity:1; 
stroke-linecap:round; stroke-linejoin:round;fill-rule:evenodd;"
d="M 22.5226,2.1500
22.4269,2.1310
22.3458,2.0768
22.2917,1.9957
22.2726,1.9000
22.2726,1.2000
22.2917,1.1043
22.3458,1.0232
22.4269,0.9690
22.5226,0.9500
23.4226,0.9500
23.5183,0.9690
23.5994,1.0232
23.6536,1.1043
23.6726,1.2000
23.6726,1.9000
23.6536,1.9957
23.5994,2.0768
23.5183,2.1310
23.4226,2.1500
Z" /> 
</g>
<g >
</g>
<g style="fill:#000000; fill-opacity:1.0000; 
stroke:#000000; stroke-width:0.0000; stroke-opacity:1; 
stroke-linecap:round; stroke-linejoin:round;">
<path style="fill:#000000; fill-opacity:1.0000; 
stroke:#000000; stroke-width:0.0000; stroke-opacity:1; 
stroke-linecap:round; stroke-linejoin:round;fill-rule:evenodd;"
d="M 12.7726,4.1500
12.6769,4.1310
12.5958,4.0768
12.5416,3.9957
12.5226,3.9000
12.5226,3.2000
12.5416,3.1043
12.5958,3.0232
12.6769,2.9690
12.7726,2.9500
13.6726,2.9500
13.7683,2.9690
13.8494,3.0232
13.9036,3.1043
13.9226,3.2000
13.9226,3.9000
13.9036,3.9957
13.8494,4.0768
13.7683,4.1310
13.6726,4.1500
Z" /> 
<path style="fill:#000000; fill-opacity:1.0000; 
stroke:#000000; stroke-width:0.0000; stroke-opacity:1; 
stroke-linecap:round; stroke-linejoin:round;fill-rule:evenodd;"
d="M 12.7726,2.1500
12.6769,2.1310
12.5958,2.0768
12.5416,1.9957
12.5226,1.9000
12.5226,1.2000
12.5416,1.1043
12.5958,1.0232
12.6769,0.9690
12.7726,0.9500
13.6726,0.9500
13.7683,0.9690
13.8494,1.0232
13.9036,1.1043
13.9226,1.2000
13.9226,1.9000
13.9036,1.9957
13.8494,2.0768
13.7683,2.1310
13.6726,2.1500
Z" /> 
</g>
<g >
</g>
<g style="fill:#000000; fill-opacity:1.0000; 
stroke:#000000; stroke-width:0.0000; stroke-opacity:1; 
stroke-linecap:round; stroke-linejoin:round;">
<path style="fill:#000000; fill-opacity:1.0000; 
stroke:#000000; stroke-width:0.0000; stroke-opacity:1; 
stroke-linecap:round; stroke-linejoin:round;fill-rule:evenodd;"
d="M 17.4976,8.7125
17.4019,8.6935
17.3208,8.6393
17.2666,8.5582
17.2476,8.4625
17.2476,7.7875
17.2666,7.6918
17.3208,7.6107
17.4019,7.5565
17.4976,7.5375
18.4476,7.5375
18.5433,7.5565
18.6244,7.6107
18.6786,7.6918
18.6976,7.7875
18.6976,8.4625
18.6786,8.5582
18.6244,8.6393
18.5433,8.6935
18.4476,8.7125
Z" /> 
<path style="fill:#000000; fill-opacity:1.0000; 
stroke:#000000; stroke-width:0.0000; stroke-opacity:1; 
stroke-linecap:round; stroke-linejoin:round;fill-rule:evenodd;"
d="M 17.4976,6.6375
17.4019,6.6185
17.3208,6.5643
17.2666,6.4832
17.2476,6.3875
17.2476,5.7125
17.2666,5.6168
17.3208,5.5357
17.4019,5.4815
17.4976,5.4625
18.4476,5.4625
18.5433,5.4815
18.6244,5.5357
18.6786,5.6168
18.6976,5.7125
18.6976,6.3875
18.6786,6.4832
18.6244,6.5643
18.5433,6.6185
18.4476,6.6375
Z" /> 
</g>
<g >
</g>
<g style="fill:#000000; fill-opacity:1.0000; 
stroke:#000000; stroke-width:0.0000; stroke-opacity:1; 
stroke-linecap:round; stroke-linejoin:round;">
<path style="fill:#000000; fill-opacity:1.0000; 
stroke:#000000; stroke-width:0.0000; stroke-opacity:1; 
stroke-linecap:round; stroke-linejoin:round;fill-rule:evenodd;"
d="M 17.5226,4.1500
17.4269,4.1310
17.3458,4.0768
17.2917,3.9957
17.2726,3.9000
17.2726,3.2000
17.2917,3.1043
17.3458,3.0232
17.4269,2.9690
17.5226,2.9500
18.4226,2.9500
18.5183,2.9690
18.5994,3.0232
18.6536,3.1043
18.6726,3.2000
18.6726,3.9000
18.6536,3.9957
18.5994,4.0768
18.5183,4.1310
18.4226,4.1500
Z" /> 
<path style="fill:#000000; fill-opacity:1.0000; 
stroke:#000000; stroke-width:0.0000; stroke-opacity:1; 
stroke-linecap:round; stroke-linejoin:round;fill-rule:evenodd;"
d="M 17.5226,2.1500
17.4269,2.1310
17.3458,2.0768
17.2917,1.9957
17.2726,1.9000
17.2726,1.2000
17.2917,1.1043
17.3458,1.0232
17.4269,0.9690
17.5226,0.9500
18.4226,0.9500
18.5183,0.9690
18.5994,1.0232
18.6536,1.1043
18.6726,1.2000
18.6726,1.9000
18.6536,1.9957
18.5994,2.0768
18.5183,2.1310
18.4226,2.1500
Z" /> 
</g>
<g >
</g>
<g style="fill:#000000; fill-opacity:1.0000; 
stroke:#000000; stroke-width:0.0000; stroke-opacity:1; 
stroke-linecap:round; stroke-linejoin:round;">
<path style="fill:#000000; fill-opacity:1.0000; 
stroke:#000000; stroke-width:0.0000; stroke-opacity:1; 
stroke-linecap:round; stroke-linejoin:round;fill-rule:evenodd;"
d="M 10.0726,10.6125
10.1300,10.6239
10.1787,10.6564
10.2112,10.7051
10.2226,10.7625
10.2226,11.7875
10.2112,11.8449
10.1787,11.8936
10.1300,11.9261
10.0726,11.9375
9.7726,11.9375
9.7152,11.9261
9.6666,11.8936
9.6340,11.8449
9.6226,11.7875
9.6226,10.7625
9.6340,10.7051
9.6666,10.6564
9.7152,10.6239
9.7726,10.6125
Z" /> 
<path style="fill:#000000; fill-opacity:1.0000; 
stroke:#000000; stroke-width:0.0000; stroke-opacity:1; 
stroke-linecap:round; stroke-linejoin:round;fill-rule:evenodd;"
d="M 8.1726,10.6125
8.2300,10.6239
8.2787,10.6564
8.3112,10.7051
8.3226,10.7625
8.3226,11.7875
8.3112,11.8449
8.2787,11.8936
8.2300,11.9261
8.1726,11.9375
7.8726,11.9375
7.8152,11.9261
7.7666,11.8936
7.7340,11.8449
7.7226,11.7875
7.7226,10.7625
7.7340,10.7051
7.7666,10.6564
7.8152,10.6239
7.8726,10.6125
Z" /> 
<path style="fill:#000000; fill-opacity:1.0000; 
stroke:#000000; stroke-width:0.0000; stroke-opacity:1; 
stroke-linecap:round; stroke-linejoin:round;fill-rule:evenodd;"
d="M 9.1226,12.8875
9.1800,12.8989
9.2287,12.9314
9.2612,12.9801
9.2726,13.0375
9.2726,14.0625
9.2612,14.1199
9.2287,14.1686
9.1800,14.2011
9.1226,14.2125
8.8226,14.2125
8.7652,14.2011
8.7166,14.1686
8.6840,14.1199
8.6726,14.0625
8.6726,13.0375
8.6840,12.9801
8.7166,12.9314
8.7652,12.8989
8.8226,12.8875
Z" /> 
</g>
<g >
</g>
<g style="fill:#000000; fill-opacity:1.0000; 
stroke:#000000; stroke-width:0.0000; stroke-opacity:1; 
stroke-linecap:round; stroke-linejoin:round;">
<path style="fill:#000000; fill-opacity:1.0000; 
stroke:#000000; stroke-width:0.0000; stroke-opacity:1; 
stroke-linecap:round; stroke-linejoin:round;fill-rule:evenodd;"
d="M 23.1226,10.6125
23.1800,10.6239
23.2287,10.6564
23.2612,10.7051
23.2726,10.7625
23.2726,11.7875
23.2612,11.8449
23.2287,11.8936
23.1800,11.9261
23.1226,11.9375
22.8226,11.9375
22.7652,11.9261
22.7166,11.8936
22.6840,11.8449
22.6726,11.7875
22.6726,10.7625
22.6840,10.7051
22.7166,10.6564
22.7652,10.6239
22.8226,10.6125
Z" /> 
<path style="fill:#000000; fill-opacity:1.0000; 
stroke:#000000; stroke-width:0.0000; stroke-opacity:1; 
stroke-linecap:round; stroke-linejoin:round;fill-rule:evenodd;"
d="M 21.2226,10.6125
21.2800,10.6239
21.3287,10.6564
21.3612,10.7051
21.3726,10.7625
21.3726,11.7875
21.3612,11.8449
21.3287,11.8936
21.2800,11.9261
21.2226,11.9375
20.9226,11.9375
20.8652,11.9261
20.8166,11.8936
20.7840,11.8449
20.7726,11.7875
20.7726,10.7625
20.7840,10.7051
20.8166,10.6564
20.8652,10.6239
20.9226,10.6125
Z" /> 
<path style="fill:#000000; fill-opacity:1.0000; 
stroke:#000000; stroke-width:0.0000; stroke-opacity:1; 
stroke-linecap:round; stroke-linejoin:round;fill-rule:evenodd;"
d="M 22.1726,12.8875
22.2300,12.8989
22.2787,12.9314
22.3112,12.9801
22.3226,13.0375
22.3226,14.0625
22.3112,14.1199
22.2787,14.1686
22.2300,14.2011
22.1726,14.2125
21.8726,14.2125
21.8152,14.2011
21.7666,14.1686
21.7340,14.1199
21.7226,14.0625
21.7226,13.0375
21.7340,12.9801
21.7666,12.9314
21.8152,12.8989
21.8726,12.8875
Z" /> 
</g>
<g >
</g>
<g style="fill:#000000; fill-opacity:1.0000; 
stroke:#000000; stroke-width:0.0000; stroke-opacity:1; 
stroke-linecap:round; stroke-linejoin:round;">
<path style="fill:#000000; fill-opacity:1.0000; 
stroke:#000000; stroke-width:0.0000; stroke-opacity:1; 
stroke-linecap:round; stroke-linejoin:round;fill-rule:evenodd;"
d="M 13.6976,5.4625
13.7933,5.4815
13.8744,5.5357
13.9286,5.6168
13.9476,5.7125
13.9476,6.3875
13.9286,6.4832
13.8744,6.5643
13.7933,6.6185
13.6976,6.6375
12.7476,6.6375
12.6519,6.6185
12.5708,6.5643
12.5167,6.4832
12.4976,6.3875
12.4976,5.7125
12.5167,5.6168
12.5708,5.5357
12.6519,5.4815
12.7476,5.4625
Z" /> 
<path style="fill:#000000; fill-opacity:1.0000; 
stroke:#000000; stroke-width:0.0000; stroke-opacity:1; 
stroke-linecap:round; stroke-linejoin:round;fill-rule:evenodd;"
d="M 13.6976,7.5375
13.7933,7.5565
13.8744,7.6107
13.9286,7.6918
13.9476,7.7875
13.9476,8.4625
13.9286,8.5582
13.8744,8.6393
13.7933,8.6935
13.6976,8.7125
12.7476,8.7125
12.6519,8.6935
12.5708,8.6393
12.5167,8.5582
12.4976,8.4625
12.4976,7.7875
12.5167,7.6918
12.5708,7.6107
12.6519,7.5565
12.7476,7.5375
Z" /> 
</g>
<g >
</g>
<g style="fill:#000000; fill-opacity:1.0000; 
stroke:#000000; stroke-width:0.0000; stroke-opacity:1; 
stroke-linecap:round; stroke-linejoin:round;">
<path style="fill:#000000; fill-opacity:1.0000; 
stroke:#000000; stroke-width:0.0000; stroke-opacity:1; 
stroke-linecap:round; stroke-linejoin:round;fill-rule:evenodd;"
d="M 18.1726,12.9000
18.1916,12.8043
18.2458,12.7232
18.3269,12.6690
18.4226,12.6500
18.9226,12.6500
19.0183,12.6690
19.0994,12.7232
19.1536,12.8043
19.1726,12.9000
19.1726,14.4000
19.1536,14.4957
19.0994,14.5768
19.0183,14.6310
18.9226,14.6500
18.4226,14.6500
18.3269,14.6310
18.2458,14.5768
18.1916,14.4957
18.1726,14.4000
Z" /> 
</g>
<g >
</g>
<g style="fill:#000000; fill-opacity:1.0000; 
stroke:#000000; stroke-width:0.0000; stroke-opacity:1; 
stroke-linecap:round; stroke-linejoin:round;">
<path style="fill:#000000; fill-opacity:1.0000; 
stroke:#000000; stroke-width:0.0000; stroke-opacity:1; 
stroke-linecap:round; stroke-linejoin:round;fill-rule:evenodd;"
d="M 7.5226,4.1500
7.4269,4.1310
7.3458,4.0768
7.2916,3.9957
7.2726,3.9000
7.2726,3.2000
7.2916,3.1043
7.3458,3.0232
7.4269,2.9690
7.5226,2.9500
8.4226,2.9500
8.5183,2.9690
8.5994,3.0232
8.6536,3.1043
8.6726,3.2000
8.6726,3.9000
8.6536,3.9957
8.5994,4.0768
8.5183,4.1310
8.4226,4.1500
Z" /> 
<path style="fill:#000000; fill-opacity:1.0000; 
stroke:#000000; stroke-width:0.0000; stroke-opacity:1; 
stroke-linecap:round; stroke-linejoin:round;fill-rule:evenodd;"
d="M 7.5226,2.1500
7.4269,2.1310
7.3458,2.0768
7.2916,1.9957
7.2726,1.9000
7.2726,1.2000
7.2916,1.1043
7.3458,1.0232
7.4269,0.9690
7.5226,0.9500
8.4226,0.9500
8.5183,0.9690
8.5994,1.0232
8.6536,1.1043
8.6726,1.2000
8.6726,1.9000
8.6536,1.9957
8.5994,2.0768
8.5183,2.1310
8.4226,2.1500
Z" /> 
</g>
<g >
</g>
<g style="fill:#000000; fill-opacity:1.0000; 
stroke:#000000; stroke-width:0.0000; stroke-opacity:1; 
stroke-linecap:round; stroke-linejoin:round;">
<path style="fill:#000000; fill-opacity:1.0000; 
stroke:#000000; stroke-width:0.0000; stroke-opacity:1; 
stroke-linecap:round; stroke-linejoin:round;fill-rule:evenodd;"
d="M 22.5226,8.6750
22.4269,8.6560
22.3458,8.6018
22.2917,8.5207
22.2726,8.4250
22.2726,7.7750
22.2917,7.6793
22.3458,7.5982
22.4269,7.5440
22.5226,7.5250
23.4226,7.5250
23.5183,7.5440
23.5994,7.5982
23.6536,7.6793
23.6726,7.7750
23.6726,8.4250
23.6536,8.5207
23.5994,8.6018
23.5183,8.6560
23.4226,8.6750
Z" /> 
<path style="fill:#000000; fill-opacity:1.0000; 
stroke:#000000; stroke-width:0.0000; stroke-opacity:1; 
stroke-linecap:round; stroke-linejoin:round;fill-rule:evenodd;"
d="M 22.5226,6.6250
22.4269,6.6060
22.3458,6.5518
22.2917,6.4707
22.2726,6.3750
22.2726,5.7250
22.2917,5.6293
22.3458,5.5482
22.4269,5.4940
22.5226,5.4750
23.4226,5.4750
23.5183,5.4940
23.5994,5.5482
23.6536,5.6293
23.6726,5.7250
23.6726,6.3750
23.6536,6.4707
23.5994,6.5518
23.5183,6.6060
23.4226,6.6250
Z" /> 
</g>
<g >
</g>
<g style="fill:#000000; fill-opacity:1.0000; 
stroke:#000000; stroke-width:0.0000; stroke-opacity:1; 
stroke-linecap:round; stroke-linejoin:round;">
<path style="fill:#000000; fill-opacity:1.0000; 
stroke:#000000; stroke-width:0.0000; stroke-opacity:1; 
stroke-linecap:round; stroke-linejoin:round;fill-rule:evenodd;"
d="M 12.1726,12.9000
12.1916,12.8043
12.2458,12.7232
12.3269,12.6690
12.4226,12.6500
12.9226,12.6500
13.0183,12.6690
13.0994,12.7232
13.1536,12.8043
13.1726,12.9000
13.1726,14.4000
13.1536,14.4957
13.0994,14.5768
13.0183,14.6310
12.9226,14.6500
12.4226,14.6500
12.3269,14.6310
12.2458,14.5768
12.1916,14.4957
12.1726,14.4000
Z" /> 
</g>
<g >
</g>
<g style="fill:#000000; fill-opacity:1.0000; 
stroke:#000000; stroke-width:0.0000; stroke-opacity:1; 
stroke-linecap:round; stroke-linejoin:round;">
<path style="fill:#000000; fill-opacity:1.0000; 
stroke:#000000; stroke-width:0.0000; stroke-opacity:1; 
stroke-linecap:round; stroke-linejoin:round;fill-rule:evenodd;"
d="M 7.5226,8.6250
7.4269,8.6060
7.3458,8.5518
7.2916,8.4707
7.2726,8.3750
7.2726,7.7250
7.2916,7.6293
7.3458,7.5482
7.4269,7.4940
7.5226,7.4750
8.4226,7.4750
8.5183,7.4940
8.5994,7.5482
8.6536,7.6293
8.6726,7.7250
8.6726,8.3750
8.6536,8.4707
8.5994,8.5518
8.5183,8.6060
8.4226,8.6250
Z" /> 
<path style="fill:#000000; fill-opacity:1.0000; 
stroke:#000000; stroke-width:0.0000; stroke-opacity:1; 
stroke-linecap:round; stroke-linejoin:round;fill-rule:evenodd;"
d="M 7.5226,6.5750
7.4269,6.5560
7.3458,6.5018
7.2916,6.4207
7.2726,6.3250
7.2726,5.6750
7.2916,5.5793
7.3458,5.4982
7.4269,5.4440
7.5226,5.4250
8.4226,5.4250
8.5183,5.4440
8.5994,5.4982
8.6536,5.5793
8.6726,5.6750
8.6726,6.3250
8.6536,6.4207
8.5994,6.5018
8.5183,6.5560
8.4226,6.5750
Z" /> 
</g>
<g >
</g>
<g >
</g>
<g style="fill:#000000; fill-opacity:1.0000; 
stroke:#000000; stroke-width:0.0000; stroke-opacity:1; 
stroke-linecap:round; stroke-linejoin:round;">
</g>
<g style="fill:#000000; fill-opacity:1.0000; 
stroke:#000000; stroke-width:0.2500; stroke-opacity:1; 
stroke-linecap:round; stroke-linejoin:round;">
</g>
<g style="fill:#000000; fill-opacity:0.0; 
stroke:#000000; stroke-width:0.2500; stroke-opacity:1; 
stroke-linecap:round; stroke-linejoin:round;">
<path d="M13.2226 3.5500
L13.2226 6.0500
" />
<path d="M9.9726 6.8000
L10.7226 6.0500
" />
<path d="M8.0226 10.5000
L9.9726 8.5500
" />
<path d="M10.7226 6.0500
L13.2226 6.0500
" />
<path d="M8.0226 11.2750
L8.0226 10.5000
" />
<path d="M9.9726 8.5500
L9.9726 6.8000
" />
<path d="M18.6927 7.2125
L19.9726 8.4924
" />
<path d="M14.1351 7.2125
L18.6927 7.2125
" />
<path d="M22.9726 12.3000
L22.9726 11.2750
" />
<path d="M20.4726 12.5500
L22.7226 12.5500
" />
<path d="M22.9726 8.1000
L22.9726 11.2750
" />
<path d="M19.9726 8.4924
L19.9726 12.0500
" />
<path d="M22.7226 12.5500
L22.9726 12.3000
" />
<path d="M13.2226 8.1250
L14.1351 7.2125
" />
<path d="M19.9726 12.0500
L20.4726 12.5500
" />
<path d="M6.6926 8.0500
L7.9726 8.0500
" />
<path d="M16.2976 9.8000
L17.9726 8.1250
" />
<path d="M8.8976 12.3000
L9.9226 11.2750
" />
<path d="M11.3976 9.8000
L16.2976 9.8000
" />
<path d="M9.9226 11.2750
L11.3976 9.8000
" />
<path d="M6.2726 11.0100
L6.2726 8.4700
" />
<path d="M6.2726 8.4700
L6.6926 8.0500
" />
<path d="M7.5626 12.3000
L8.8976 12.3000
" />
<path d="M7.5626 12.3000
L6.2726 11.0100
" />
<path d="M18.4726 6.0500
L21.0726 8.6500
" />
<path d="M21.0726 8.6500
L21.0726 11.2750
" />
<path d="M17.9726 6.0500
L18.4726 6.0500
" />
<path d="M17.9726 3.5500
L17.9726 6.0500
" />
<path d="M7.9726 3.5500
L7.9726 6.0000
" />
<path d="M22.9726 3.5500
L22.9726 6.0500
" />
<path d="M7.1726 14.7500
L5.7726 13.3500
" />
<path d="M6.4726 1.5500
L7.9726 1.5500
" />
<path d="M5.7726 13.3500
L5.7726 2.2500
" />
<path d="M11.5726 14.7500
L7.1726 14.7500
" />
<path d="M17.9726 1.5500
L22.9726 1.5500
" />
<path d="M7.9726 1.5500
L13.2226 1.5500
" />
<path d="M12.6726 13.6500
L11.5726 14.7500
" />
<path d="M5.7726 2.2500
L6.4726 1.5500
" />
<path d="M13.2226 1.5500
L17.9726 1.5500
" />
</g>
<g >
</g>
<g style="fill:#000000; fill-opacity:0.0; 
stroke:#000000; stroke-width:0.2500; stroke-opacity:1; 
stroke-linecap:round; stroke-linejoin:round;">
<g >
</g>
<g style="fill:#000000; fill-opacity:1.0000; 
stroke:#000000; stroke-width:0.0000; stroke-opacity:1; 
stroke-linecap:round; stroke-linejoin:round;">
<path style="fill:#000000; fill-opacity:1.0000; 
stroke:#000000; stroke-width:0.0000; stroke-opacity:1; 
stroke-linecap:round; stroke-linejoin:round;fill-rule:evenodd;"
d="M 25.4152,0.0702
25.4609,0.1230
25.4721,0.1745
25.4721,14.9255
25.4524,14.9925
25.3996,15.0383
25.3481,15.0495
19.6254,15.0495
19.5583,15.0298
19.5126,14.9770
19.5026,14.9079
19.5198,14.8604
19.6070,14.7191
19.6070,14.7191
19.6621,14.5527
19.6621,14.5527
19.6726,14.4500
19.6726,14.4500
19.6726,13.9000
17.6726,13.9000
17.6726,14.4500
17.6831,14.5527
17.7383,14.7191
17.7383,14.7191
17.8254,14.8604
17.8438,14.9278
17.8229,14.9945
17.7693,15.0392
17.7199,15.0495
13.6260,15.0495
13.5589,15.0298
13.5132,14.9770
13.5032,14.9079
13.5204,14.8604
13.6074,14.7193
13.6074,14.7193
13.6626,14.5528
13.6731,14.4500
13.6731,13.8000
21.2226,13.8000
21.2226,14.1281
21.2255,14.1650
21.2255,14.1650
21.2713,14.3227
21.2713,14.3227
21.3549,14.4641
21.3549,14.4641
21.4711,14.5802
21.4711,14.5802
21.6124,14.6638
21.7701,14.7096
21.7701,14.7096
21.7726,14.7098
21.7726,14.7098
21.7726,13.8000
22.2726,13.8000
22.2726,14.7098
22.2726,14.7098
22.2751,14.7096
22.4328,14.6638
22.5742,14.5802
22.5742,14.5802
22.6903,14.4641
22.6903,14.4641
22.7739,14.3227
22.7739,14.3227
22.8197,14.1650
22.8197,14.1650
22.8226,14.1281
22.8226,14.1281
22.8226,13.8000
22.2726,13.8000
21.7726,13.8000
21.2226,13.8000
13.6731,13.8000
13.6731,13.4000
17.6726,13.4000
18.4226,13.4000
18.4226,12.1500
18.4226,12.1500
18.3726,12.1500
18.3726,12.1500
18.2699,12.1605
18.1035,12.2156
18.1035,12.2156
17.9543,12.3077
17.8303,12.4317
17.7383,12.5809
17.7383,12.5809
17.6831,12.7473
17.6831,12.7473
17.6726,12.8500
17.6726,13.4000
13.6731,13.4000
13.6731,12.8500
13.6702,12.8212
13.6626,12.7472
13.6626,12.7472
13.6457,12.6961
13.6074,12.5807
13.5153,12.4313
13.3913,12.3073
13.2985,12.2501
13.2420,12.2152
13.2420,12.2152
13.2405,12.2147
13.0754,12.1600
13.0754,12.1600
12.9726,12.1495
12.3726,12.1495
12.3726,12.1495
12.2698,12.1600
12.2698,12.1600
12.1033,12.2152
12.1033,12.2152
11.9540,12.3073
11.8299,12.4313
11.7378,12.5807
11.7378,12.5807
11.7377,12.5809
11.6826,12.7472
11.6826,12.7472
11.6826,12.7472
11.6721,12.8500
11.6721,13.7145
11.6524,13.7816
11.6358,13.8022
11.3498,14.0882
11.2885,14.1217
11.2622,14.1245
9.8966,14.1245
9.8296,14.1048
9.7838,14.0520
9.7726,14.0005
9.7726,13.8000
8.1726,13.8000
8.1726,14.0005
8.1529,14.0675
8.1001,14.1133
8.0486,14.1245
7.4831,14.1245
7.4160,14.1048
7.3954,14.0882
6.4344,13.1272
6.4010,13.0659
6.3981,13.0395
6.3981,12.3195
6.4178,12.2524
6.4706,12.2067
6.5398,12.1967
6.6033,12.2257
6.6098,12.2318
6.8539,12.4759
7.0618,12.6838
7.0716,12.6961
7.0719,12.6959
7.0768,12.7019
7.0768,12.7019
7.0768,12.7019
7.0977,12.7214
7.1258,12.7479
7.1286,12.7506
7.1481,12.7701
7.1481,12.7701
7.1481,12.7701
7.1513,12.7726
7.1602,12.7802
7.1920,12.8101
7.2096,12.8197
7.2259,12.8304
7.2417,12.8427
7.2818,12.8600
7.2922,12.8652
7.3148,12.8775
7.3305,12.8862
7.3305,12.8862
7.3305,12.8862
7.3499,12.8912
7.3683,12.8975
7.3867,12.9054
7.3867,12.9054
7.3867,12.9054
7.4299,12.9123
7.4413,12.9146
7.4836,12.9255
7.5036,12.9255
7.5230,12.9270
7.5428,12.9302
7.5836,12.9263
7.5863,12.9261
7.5980,12.9255
8.0486,12.9255
8.1157,12.9452
8.1614,12.9980
8.1726,13.0495
8.1726,13.3000
9.7726,13.3000
9.7726,12.9719
9.7726,12.9718
9.7697,12.9350
9.7697,12.9350
9.7239,12.7773
9.7239,12.7773
9.6363,12.6292
9.6381,12.6282
9.6164,12.5730
9.6300,12.5044
9.6786,12.4542
9.7399,12.4380
10.1383,12.4380
10.1383,12.4380
10.1752,12.4351
10.1752,12.4351
10.1752,12.4351
10.2226,12.4213
10.3330,12.3892
10.4745,12.3056
10.5907,12.1894
10.6744,12.0479
10.7102,11.9245
10.7202,11.8901
10.7202,11.8901
10.7231,11.8532
10.7231,11.8532
10.7231,11.4105
10.7428,11.3434
10.7594,11.3228
11.6204,10.4618
11.6817,10.4283
11.7081,10.4255
16.2149,10.4255
16.2305,10.4272
16.2305,10.4269
16.2383,10.4277
16.2383,10.4277
16.3055,10.4256
16.3094,10.4255
16.3370,10.4255
16.3370,10.4255
16.3409,10.4250
16.3526,10.4241
16.3962,10.4227
16.4155,10.4171
16.4345,10.4132
16.4544,10.4107
16.4950,10.3946
16.5061,10.3908
16.5480,10.3786
16.5652,10.3684
16.5827,10.3599
16.6013,10.3525
16.6013,10.3525
16.6014,10.3525
16.6367,10.3268
16.6464,10.3204
16.6840,10.2982
16.6982,10.2840
16.7130,10.2714
16.7292,10.2596
16.7571,10.2259
16.7649,10.2173
17.7329,9.2493
17.7942,9.2158
17.8206,9.2130
18.4976,9.2130
18.4976,9.2130
18.6004,9.2025
18.7670,9.1473
18.9163,9.0552
19.0403,8.9312
19.1176,8.8059
19.1695,8.7592
19.2385,8.7480
19.3026,8.7758
19.3414,8.8339
19.3471,8.8710
19.3471,11.9673
19.3454,11.9829
19.3457,11.9829
19.3449,11.9907
19.3471,12.0579
19.3471,12.0618
19.3471,12.0788
19.3274,12.1459
19.2746,12.1916
19.2055,12.2016
19.1841,12.1965
19.0753,12.1605
19.0753,12.1605
18.9726,12.1500
18.9226,12.1500
18.9226,13.4000
19.6726,13.4000
19.6726,12.9340
19.6923,12.8669
19.7451,12.8212
19.8143,12.8112
19.8778,12.8402
19.8843,12.8463
19.9718,12.9338
19.9816,12.9460
19.9819,12.9459
19.9868,12.9519
20.0359,12.9979
20.0387,13.0006
20.0581,13.0201
20.0613,13.0226
20.0702,13.0302
20.1020,13.0601
20.1020,13.0601
20.1020,13.0601
20.1196,13.0697
20.1359,13.0804
20.1517,13.0927
20.1918,13.1100
20.2023,13.1152
20.2405,13.1362
20.2405,13.1362
20.2405,13.1362
20.2599,13.1412
20.2783,13.1475
20.2967,13.1554
20.2967,13.1554
20.2967,13.1554
20.3399,13.1623
20.3513,13.1646
20.3936,13.1755
20.4136,13.1755
20.4330,13.1770
20.4528,13.1802
20.4963,13.1761
20.5080,13.1755
21.0986,13.1755
21.1657,13.1952
21.2114,13.2480
21.2226,13.2995
21.2226,13.3000
22.8226,13.3000
22.8226,13.2674
22.8423,13.2004
22.8951,13.1546
22.9009,13.1521
22.9200,13.1446
22.9311,13.1408
22.9730,13.1286
22.9902,13.1184
23.0077,13.1099
23.0263,13.1025
23.0263,13.1025
23.0264,13.1025
23.0617,13.0768
23.0714,13.0704
23.1090,13.0482
23.1232,13.0340
23.1380,13.0214
23.1542,13.0096
23.1821,12.9759
23.1899,12.9673
23.3564,12.8008
23.3687,12.7910
23.3685,12.7908
23.3745,12.7858
23.3745,12.7858
23.3745,12.7858
23.4206,12.7367
23.4232,12.7340
23.4427,12.7145
23.4452,12.7113
23.4528,12.7024
23.4827,12.6706
23.4923,12.6530
23.5030,12.6368
23.5153,12.6209
23.5326,12.5808
23.5378,12.5704
23.5588,12.5321
23.5638,12.5127
23.5701,12.4943
23.5781,12.4759
23.5849,12.4327
23.5873,12.4213
23.5981,12.3790
23.5981,12.3590
23.5996,12.3396
23.6018,12.3260
23.6028,12.3198
23.6003,12.2934
23.6136,12.2248
23.6361,12.1940
23.6407,12.1894
23.7244,12.0479
23.7602,11.9245
23.7702,11.8901
23.7702,11.8901
23.7731,11.8532
23.7731,11.8532
23.7731,10.6968
23.7702,10.6599
23.7244,10.5021
23.6407,10.3606
23.6407,10.3606
23.6407,10.3606
23.6344,10.3544
23.6010,10.2930
23.5981,10.2667
23.5981,9.2470
23.6178,9.1800
23.6706,9.1342
23.6831,9.1293
23.7420,9.1098
23.8913,9.0177
24.0153,8.8937
24.1074,8.7443
24.1626,8.5778
24.1731,8.4750
24.1731,7.7250
24.1680,7.6750
24.1626,7.6222
24.1626,7.6222
24.1074,7.4557
24.0153,7.3063
23.8913,7.1823
23.8884,7.1805
23.8869,7.1788
23.8856,7.1778
23.8858,7.1776
23.8417,7.1286
23.8305,7.0596
23.8583,6.9955
23.8884,6.9695
23.8913,6.9677
24.0153,6.8437
24.1074,6.6943
24.1626,6.5278
24.1731,6.4250
24.1731,5.6750
24.1688,5.6327
24.1626,5.5722
24.1626,5.5722
24.1074,5.4057
24.0153,5.2563
23.8913,5.1323
23.7420,5.0402
23.6831,5.0207
23.6257,4.9809
23.5988,4.9164
23.5981,4.9030
23.5981,4.7220
23.6178,4.6550
23.6706,4.6092
23.6831,4.6043
23.7420,4.5848
23.8913,4.4927
24.0153,4.3687
24.1074,4.2193
24.1626,4.0528
24.1731,3.9500
24.1731,3.1500
24.1626,3.0472
24.1074,2.8807
24.0153,2.7313
23.9217,2.6377
23.8882,2.5764
23.8932,2.5067
23.9217,2.4623
24.0153,2.3687
24.1074,2.2193
24.1626,2.0528
24.1731,1.9500
24.1731,1.1500
24.1709,1.1286
24.1626,1.0472
24.1626,1.0472
24.1558,1.0266
24.1074,0.8807
24.0153,0.7313
23.8913,0.6073
23.7420,0.5152
23.5754,0.4600
23.5754,0.4600
23.4726,0.4495
22.4726,0.4495
22.4726,0.4495
22.3698,0.4600
22.3698,0.4600
22.2033,0.5152
22.2033,0.5152
22.0540,0.6073
21.9299,0.7313
21.8471,0.8656
21.7952,0.9123
21.7416,0.9245
19.2037,0.9245
19.1366,0.9048
19.0981,0.8656
19.0153,0.7313
18.8913,0.6073
18.7420,0.5152
18.5754,0.4600
18.5754,0.4600
18.4726,0.4495
17.4726,0.4495
17.4726,0.4495
17.3698,0.4600
17.3698,0.4600
17.2033,0.5152
17.2033,0.5152
17.0540,0.6073
16.9299,0.7313
16.8471,0.8656
16.7952,0.9123
16.7416,0.9245
14.4537,0.9245
14.3866,0.9048
14.3481,0.8656
14.2653,0.7313
14.1413,0.6073
13.9920,0.5152
13.8254,0.4600
13.8254,0.4600
13.7226,0.4495
12.7226,0.4495
12.7226,0.4495
12.6198,0.4600
12.6198,0.4600
12.4533,0.5152
12.4533,0.5152
12.3040,0.6073
12.1799,0.7313
12.0971,0.8656
12.0452,0.9123
11.9916,0.9245
9.2037,0.9245
9.1366,0.9048
9.0981,0.8656
9.0153,0.7313
8.8913,0.6073
8.7420,0.5152
8.5754,0.4600
8.5754,0.4600
8.4726,0.4495
7.4726,0.4495
7.4726,0.4495
7.3698,0.4600
7.3698,0.4600
7.2033,0.5152
7.2033,0.5152
7.0540,0.6073
6.9299,0.7313
6.8471,0.8656
6.7952,0.9123
6.7416,0.9245
6.5554,0.9245
6.5397,0.9228
6.5397,0.9231
6.5320,0.9223
6.4648,0.9244
6.4609,0.9245
6.4333,0.9245
6.4296,0.9250
6.4293,0.9250
6.4177,0.9259
6.3740,0.9273
6.3740,0.9273
6.3547,0.9329
6.3357,0.9368
6.3158,0.9393
6.3158,0.9393
6.2752,0.9554
6.2642,0.9592
6.2222,0.9714
6.2222,0.9714
6.2050,0.9816
6.1875,0.9901
6.1689,0.9975
6.1689,0.9975
6.1335,1.0232
6.1238,1.0296
6.0862,1.0518
6.0720,1.0660
6.0572,1.0786
6.0410,1.0904
6.0132,1.1241
6.0053,1.1327
5.6848,1.4532
5.6235,1.4867
5.5538,1.4817
5.4979,1.4399
5.4734,1.3744
5.4731,1.3655
5.4731,0.1745
5.4928,0.1075
5.5456,0.0617
5.5971,0.0505
25.3481,0.0505
Z" /> 
</g>
</g>
</g>
<g style="fill:#000000; fill-opacity:1.0000; 
stroke:#000000; stroke-width:0.0000; stroke-opacity:1; 
stroke-linecap:round; stroke-linejoin:round;">
</g>
<g style="fill:#000000; fill-opacity:0.0; 
stroke:#000000; stroke-width:0.1000; stroke-opacity:1; 
stroke-linecap:round; stroke-linejoin:round;">
<path style="fill:#000000; fill-opacity:0.0; 
stroke:#000000; stroke-width:0.1000; stroke-opacity:1; 
stroke-linecap:round; stroke-linejoin:round;fill:none"
d="M 5.4726,0.0500
25.4726,0.0500
25.4726,15.0500
5.4726,15.0500
Z" /> 
<g >
</g>
<g >
</g>
<g >
</g>
<g >
</g>
<g >
</g>
<g >
</g>
<g >
</g>
<g >
</g>
<g >
</g>
<g >
</g>
<g >
</g>
<g >
</g>
<g >
</g>
<g >
</g>
<g >
</g>
</g> 
</svg>
