%TF.GenerationSoftware,KiCad,Pcbnew,7.0.10*%
%TF.CreationDate,2024-01-10T15:24:57-03:00*%
%TF.ProjectId,osc,6f73632e-6b69-4636-9164-5f7063625858,rev?*%
%TF.SameCoordinates,Original*%
%TF.FileFunction,Legend,Top*%
%TF.FilePolarity,Positive*%
%FSLAX46Y46*%
G04 Gerber Fmt 4.6, Leading zero omitted, Abs format (unit mm)*
G04 Created by KiCad (PCBNEW 7.0.10) date 2024-01-10 15:24:57*
%MOMM*%
%LPD*%
G01*
G04 APERTURE LIST*
%ADD10C,0.150000*%
%ADD11C,0.120000*%
G04 APERTURE END LIST*
D10*
X66304819Y-52666666D02*
X65828628Y-52999999D01*
X66304819Y-53238094D02*
X65304819Y-53238094D01*
X65304819Y-53238094D02*
X65304819Y-52857142D01*
X65304819Y-52857142D02*
X65352438Y-52761904D01*
X65352438Y-52761904D02*
X65400057Y-52714285D01*
X65400057Y-52714285D02*
X65495295Y-52666666D01*
X65495295Y-52666666D02*
X65638152Y-52666666D01*
X65638152Y-52666666D02*
X65733390Y-52714285D01*
X65733390Y-52714285D02*
X65781009Y-52761904D01*
X65781009Y-52761904D02*
X65828628Y-52857142D01*
X65828628Y-52857142D02*
X65828628Y-53238094D01*
X65638152Y-51809523D02*
X66304819Y-51809523D01*
X65257200Y-52047618D02*
X65971485Y-52285713D01*
X65971485Y-52285713D02*
X65971485Y-51666666D01*
X56554819Y-52666666D02*
X56078628Y-52999999D01*
X56554819Y-53238094D02*
X55554819Y-53238094D01*
X55554819Y-53238094D02*
X55554819Y-52857142D01*
X55554819Y-52857142D02*
X55602438Y-52761904D01*
X55602438Y-52761904D02*
X55650057Y-52714285D01*
X55650057Y-52714285D02*
X55745295Y-52666666D01*
X55745295Y-52666666D02*
X55888152Y-52666666D01*
X55888152Y-52666666D02*
X55983390Y-52714285D01*
X55983390Y-52714285D02*
X56031009Y-52761904D01*
X56031009Y-52761904D02*
X56078628Y-52857142D01*
X56078628Y-52857142D02*
X56078628Y-53238094D01*
X55650057Y-52285713D02*
X55602438Y-52238094D01*
X55602438Y-52238094D02*
X55554819Y-52142856D01*
X55554819Y-52142856D02*
X55554819Y-51904761D01*
X55554819Y-51904761D02*
X55602438Y-51809523D01*
X55602438Y-51809523D02*
X55650057Y-51761904D01*
X55650057Y-51761904D02*
X55745295Y-51714285D01*
X55745295Y-51714285D02*
X55840533Y-51714285D01*
X55840533Y-51714285D02*
X55983390Y-51761904D01*
X55983390Y-51761904D02*
X56554819Y-52333332D01*
X56554819Y-52333332D02*
X56554819Y-51714285D01*
X61179580Y-57204166D02*
X61227200Y-57251785D01*
X61227200Y-57251785D02*
X61274819Y-57394642D01*
X61274819Y-57394642D02*
X61274819Y-57489880D01*
X61274819Y-57489880D02*
X61227200Y-57632737D01*
X61227200Y-57632737D02*
X61131961Y-57727975D01*
X61131961Y-57727975D02*
X61036723Y-57775594D01*
X61036723Y-57775594D02*
X60846247Y-57823213D01*
X60846247Y-57823213D02*
X60703390Y-57823213D01*
X60703390Y-57823213D02*
X60512914Y-57775594D01*
X60512914Y-57775594D02*
X60417676Y-57727975D01*
X60417676Y-57727975D02*
X60322438Y-57632737D01*
X60322438Y-57632737D02*
X60274819Y-57489880D01*
X60274819Y-57489880D02*
X60274819Y-57394642D01*
X60274819Y-57394642D02*
X60322438Y-57251785D01*
X60322438Y-57251785D02*
X60370057Y-57204166D01*
X60274819Y-56870832D02*
X60274819Y-56251785D01*
X60274819Y-56251785D02*
X60655771Y-56585118D01*
X60655771Y-56585118D02*
X60655771Y-56442261D01*
X60655771Y-56442261D02*
X60703390Y-56347023D01*
X60703390Y-56347023D02*
X60751009Y-56299404D01*
X60751009Y-56299404D02*
X60846247Y-56251785D01*
X60846247Y-56251785D02*
X61084342Y-56251785D01*
X61084342Y-56251785D02*
X61179580Y-56299404D01*
X61179580Y-56299404D02*
X61227200Y-56347023D01*
X61227200Y-56347023D02*
X61274819Y-56442261D01*
X61274819Y-56442261D02*
X61274819Y-56727975D01*
X61274819Y-56727975D02*
X61227200Y-56823213D01*
X61227200Y-56823213D02*
X61179580Y-56870832D01*
X61304819Y-52666666D02*
X60828628Y-52999999D01*
X61304819Y-53238094D02*
X60304819Y-53238094D01*
X60304819Y-53238094D02*
X60304819Y-52857142D01*
X60304819Y-52857142D02*
X60352438Y-52761904D01*
X60352438Y-52761904D02*
X60400057Y-52714285D01*
X60400057Y-52714285D02*
X60495295Y-52666666D01*
X60495295Y-52666666D02*
X60638152Y-52666666D01*
X60638152Y-52666666D02*
X60733390Y-52714285D01*
X60733390Y-52714285D02*
X60781009Y-52761904D01*
X60781009Y-52761904D02*
X60828628Y-52857142D01*
X60828628Y-52857142D02*
X60828628Y-53238094D01*
X60304819Y-52333332D02*
X60304819Y-51714285D01*
X60304819Y-51714285D02*
X60685771Y-52047618D01*
X60685771Y-52047618D02*
X60685771Y-51904761D01*
X60685771Y-51904761D02*
X60733390Y-51809523D01*
X60733390Y-51809523D02*
X60781009Y-51761904D01*
X60781009Y-51761904D02*
X60876247Y-51714285D01*
X60876247Y-51714285D02*
X61114342Y-51714285D01*
X61114342Y-51714285D02*
X61209580Y-51761904D01*
X61209580Y-51761904D02*
X61257200Y-51809523D01*
X61257200Y-51809523D02*
X61304819Y-51904761D01*
X61304819Y-51904761D02*
X61304819Y-52190475D01*
X61304819Y-52190475D02*
X61257200Y-52285713D01*
X61257200Y-52285713D02*
X61209580Y-52333332D01*
X56450057Y-62457738D02*
X56402438Y-62552976D01*
X56402438Y-62552976D02*
X56307200Y-62648214D01*
X56307200Y-62648214D02*
X56164342Y-62791071D01*
X56164342Y-62791071D02*
X56116723Y-62886309D01*
X56116723Y-62886309D02*
X56116723Y-62981547D01*
X56354819Y-62933928D02*
X56307200Y-63029166D01*
X56307200Y-63029166D02*
X56211961Y-63124404D01*
X56211961Y-63124404D02*
X56021485Y-63172023D01*
X56021485Y-63172023D02*
X55688152Y-63172023D01*
X55688152Y-63172023D02*
X55497676Y-63124404D01*
X55497676Y-63124404D02*
X55402438Y-63029166D01*
X55402438Y-63029166D02*
X55354819Y-62933928D01*
X55354819Y-62933928D02*
X55354819Y-62743452D01*
X55354819Y-62743452D02*
X55402438Y-62648214D01*
X55402438Y-62648214D02*
X55497676Y-62552976D01*
X55497676Y-62552976D02*
X55688152Y-62505357D01*
X55688152Y-62505357D02*
X56021485Y-62505357D01*
X56021485Y-62505357D02*
X56211961Y-62552976D01*
X56211961Y-62552976D02*
X56307200Y-62648214D01*
X56307200Y-62648214D02*
X56354819Y-62743452D01*
X56354819Y-62743452D02*
X56354819Y-62933928D01*
X55450057Y-62124404D02*
X55402438Y-62076785D01*
X55402438Y-62076785D02*
X55354819Y-61981547D01*
X55354819Y-61981547D02*
X55354819Y-61743452D01*
X55354819Y-61743452D02*
X55402438Y-61648214D01*
X55402438Y-61648214D02*
X55450057Y-61600595D01*
X55450057Y-61600595D02*
X55545295Y-61552976D01*
X55545295Y-61552976D02*
X55640533Y-61552976D01*
X55640533Y-61552976D02*
X55783390Y-61600595D01*
X55783390Y-61600595D02*
X56354819Y-62172023D01*
X56354819Y-62172023D02*
X56354819Y-61552976D01*
X69500057Y-62457738D02*
X69452438Y-62552976D01*
X69452438Y-62552976D02*
X69357200Y-62648214D01*
X69357200Y-62648214D02*
X69214342Y-62791071D01*
X69214342Y-62791071D02*
X69166723Y-62886309D01*
X69166723Y-62886309D02*
X69166723Y-62981547D01*
X69404819Y-62933928D02*
X69357200Y-63029166D01*
X69357200Y-63029166D02*
X69261961Y-63124404D01*
X69261961Y-63124404D02*
X69071485Y-63172023D01*
X69071485Y-63172023D02*
X68738152Y-63172023D01*
X68738152Y-63172023D02*
X68547676Y-63124404D01*
X68547676Y-63124404D02*
X68452438Y-63029166D01*
X68452438Y-63029166D02*
X68404819Y-62933928D01*
X68404819Y-62933928D02*
X68404819Y-62743452D01*
X68404819Y-62743452D02*
X68452438Y-62648214D01*
X68452438Y-62648214D02*
X68547676Y-62552976D01*
X68547676Y-62552976D02*
X68738152Y-62505357D01*
X68738152Y-62505357D02*
X69071485Y-62505357D01*
X69071485Y-62505357D02*
X69261961Y-62552976D01*
X69261961Y-62552976D02*
X69357200Y-62648214D01*
X69357200Y-62648214D02*
X69404819Y-62743452D01*
X69404819Y-62743452D02*
X69404819Y-62933928D01*
X69404819Y-61552976D02*
X69404819Y-62124404D01*
X69404819Y-61838690D02*
X68404819Y-61838690D01*
X68404819Y-61838690D02*
X68547676Y-61933928D01*
X68547676Y-61933928D02*
X68642914Y-62029166D01*
X68642914Y-62029166D02*
X68690533Y-62124404D01*
X59789580Y-57204166D02*
X59837200Y-57251785D01*
X59837200Y-57251785D02*
X59884819Y-57394642D01*
X59884819Y-57394642D02*
X59884819Y-57489880D01*
X59884819Y-57489880D02*
X59837200Y-57632737D01*
X59837200Y-57632737D02*
X59741961Y-57727975D01*
X59741961Y-57727975D02*
X59646723Y-57775594D01*
X59646723Y-57775594D02*
X59456247Y-57823213D01*
X59456247Y-57823213D02*
X59313390Y-57823213D01*
X59313390Y-57823213D02*
X59122914Y-57775594D01*
X59122914Y-57775594D02*
X59027676Y-57727975D01*
X59027676Y-57727975D02*
X58932438Y-57632737D01*
X58932438Y-57632737D02*
X58884819Y-57489880D01*
X58884819Y-57489880D02*
X58884819Y-57394642D01*
X58884819Y-57394642D02*
X58932438Y-57251785D01*
X58932438Y-57251785D02*
X58980057Y-57204166D01*
X58980057Y-56823213D02*
X58932438Y-56775594D01*
X58932438Y-56775594D02*
X58884819Y-56680356D01*
X58884819Y-56680356D02*
X58884819Y-56442261D01*
X58884819Y-56442261D02*
X58932438Y-56347023D01*
X58932438Y-56347023D02*
X58980057Y-56299404D01*
X58980057Y-56299404D02*
X59075295Y-56251785D01*
X59075295Y-56251785D02*
X59170533Y-56251785D01*
X59170533Y-56251785D02*
X59313390Y-56299404D01*
X59313390Y-56299404D02*
X59884819Y-56870832D01*
X59884819Y-56870832D02*
X59884819Y-56251785D01*
X61866666Y-61514819D02*
X61533333Y-61038628D01*
X61295238Y-61514819D02*
X61295238Y-60514819D01*
X61295238Y-60514819D02*
X61676190Y-60514819D01*
X61676190Y-60514819D02*
X61771428Y-60562438D01*
X61771428Y-60562438D02*
X61819047Y-60610057D01*
X61819047Y-60610057D02*
X61866666Y-60705295D01*
X61866666Y-60705295D02*
X61866666Y-60848152D01*
X61866666Y-60848152D02*
X61819047Y-60943390D01*
X61819047Y-60943390D02*
X61771428Y-60991009D01*
X61771428Y-60991009D02*
X61676190Y-61038628D01*
X61676190Y-61038628D02*
X61295238Y-61038628D01*
X62295238Y-60991009D02*
X62628571Y-60991009D01*
X62771428Y-61514819D02*
X62295238Y-61514819D01*
X62295238Y-61514819D02*
X62295238Y-60514819D01*
X62295238Y-60514819D02*
X62771428Y-60514819D01*
X63533333Y-60991009D02*
X63200000Y-60991009D01*
X63200000Y-61514819D02*
X63200000Y-60514819D01*
X63200000Y-60514819D02*
X63676190Y-60514819D01*
X64200000Y-60514819D02*
X64200000Y-60752914D01*
X63961905Y-60657676D02*
X64200000Y-60752914D01*
X64200000Y-60752914D02*
X64438095Y-60657676D01*
X64057143Y-60943390D02*
X64200000Y-60752914D01*
X64200000Y-60752914D02*
X64342857Y-60943390D01*
X64961905Y-60514819D02*
X64961905Y-60752914D01*
X64723810Y-60657676D02*
X64961905Y-60752914D01*
X64961905Y-60752914D02*
X65200000Y-60657676D01*
X64819048Y-60943390D02*
X64961905Y-60752914D01*
X64961905Y-60752914D02*
X65104762Y-60943390D01*
X51304819Y-52666666D02*
X50828628Y-52999999D01*
X51304819Y-53238094D02*
X50304819Y-53238094D01*
X50304819Y-53238094D02*
X50304819Y-52857142D01*
X50304819Y-52857142D02*
X50352438Y-52761904D01*
X50352438Y-52761904D02*
X50400057Y-52714285D01*
X50400057Y-52714285D02*
X50495295Y-52666666D01*
X50495295Y-52666666D02*
X50638152Y-52666666D01*
X50638152Y-52666666D02*
X50733390Y-52714285D01*
X50733390Y-52714285D02*
X50781009Y-52761904D01*
X50781009Y-52761904D02*
X50828628Y-52857142D01*
X50828628Y-52857142D02*
X50828628Y-53238094D01*
X51304819Y-51714285D02*
X51304819Y-52285713D01*
X51304819Y-51999999D02*
X50304819Y-51999999D01*
X50304819Y-51999999D02*
X50447676Y-52095237D01*
X50447676Y-52095237D02*
X50542914Y-52190475D01*
X50542914Y-52190475D02*
X50590533Y-52285713D01*
X66304819Y-57763094D02*
X65304819Y-57763094D01*
X65304819Y-57763094D02*
X65304819Y-57524999D01*
X65304819Y-57524999D02*
X65352438Y-57382142D01*
X65352438Y-57382142D02*
X65447676Y-57286904D01*
X65447676Y-57286904D02*
X65542914Y-57239285D01*
X65542914Y-57239285D02*
X65733390Y-57191666D01*
X65733390Y-57191666D02*
X65876247Y-57191666D01*
X65876247Y-57191666D02*
X66066723Y-57239285D01*
X66066723Y-57239285D02*
X66161961Y-57286904D01*
X66161961Y-57286904D02*
X66257200Y-57382142D01*
X66257200Y-57382142D02*
X66304819Y-57524999D01*
X66304819Y-57524999D02*
X66304819Y-57763094D01*
X65400057Y-56810713D02*
X65352438Y-56763094D01*
X65352438Y-56763094D02*
X65304819Y-56667856D01*
X65304819Y-56667856D02*
X65304819Y-56429761D01*
X65304819Y-56429761D02*
X65352438Y-56334523D01*
X65352438Y-56334523D02*
X65400057Y-56286904D01*
X65400057Y-56286904D02*
X65495295Y-56239285D01*
X65495295Y-56239285D02*
X65590533Y-56239285D01*
X65590533Y-56239285D02*
X65733390Y-56286904D01*
X65733390Y-56286904D02*
X66304819Y-56858332D01*
X66304819Y-56858332D02*
X66304819Y-56239285D01*
X55866666Y-61514819D02*
X55533333Y-61038628D01*
X55295238Y-61514819D02*
X55295238Y-60514819D01*
X55295238Y-60514819D02*
X55676190Y-60514819D01*
X55676190Y-60514819D02*
X55771428Y-60562438D01*
X55771428Y-60562438D02*
X55819047Y-60610057D01*
X55819047Y-60610057D02*
X55866666Y-60705295D01*
X55866666Y-60705295D02*
X55866666Y-60848152D01*
X55866666Y-60848152D02*
X55819047Y-60943390D01*
X55819047Y-60943390D02*
X55771428Y-60991009D01*
X55771428Y-60991009D02*
X55676190Y-61038628D01*
X55676190Y-61038628D02*
X55295238Y-61038628D01*
X56295238Y-60991009D02*
X56628571Y-60991009D01*
X56771428Y-61514819D02*
X56295238Y-61514819D01*
X56295238Y-61514819D02*
X56295238Y-60514819D01*
X56295238Y-60514819D02*
X56771428Y-60514819D01*
X57533333Y-60991009D02*
X57200000Y-60991009D01*
X57200000Y-61514819D02*
X57200000Y-60514819D01*
X57200000Y-60514819D02*
X57676190Y-60514819D01*
X58200000Y-60514819D02*
X58200000Y-60752914D01*
X57961905Y-60657676D02*
X58200000Y-60752914D01*
X58200000Y-60752914D02*
X58438095Y-60657676D01*
X58057143Y-60943390D02*
X58200000Y-60752914D01*
X58200000Y-60752914D02*
X58342857Y-60943390D01*
X58961905Y-60514819D02*
X58961905Y-60752914D01*
X58723810Y-60657676D02*
X58961905Y-60752914D01*
X58961905Y-60752914D02*
X59200000Y-60657676D01*
X58819048Y-60943390D02*
X58961905Y-60752914D01*
X58961905Y-60752914D02*
X59104762Y-60943390D01*
X51304819Y-57713094D02*
X50304819Y-57713094D01*
X50304819Y-57713094D02*
X50304819Y-57474999D01*
X50304819Y-57474999D02*
X50352438Y-57332142D01*
X50352438Y-57332142D02*
X50447676Y-57236904D01*
X50447676Y-57236904D02*
X50542914Y-57189285D01*
X50542914Y-57189285D02*
X50733390Y-57141666D01*
X50733390Y-57141666D02*
X50876247Y-57141666D01*
X50876247Y-57141666D02*
X51066723Y-57189285D01*
X51066723Y-57189285D02*
X51161961Y-57236904D01*
X51161961Y-57236904D02*
X51257200Y-57332142D01*
X51257200Y-57332142D02*
X51304819Y-57474999D01*
X51304819Y-57474999D02*
X51304819Y-57713094D01*
X51304819Y-56189285D02*
X51304819Y-56760713D01*
X51304819Y-56474999D02*
X50304819Y-56474999D01*
X50304819Y-56474999D02*
X50447676Y-56570237D01*
X50447676Y-56570237D02*
X50542914Y-56665475D01*
X50542914Y-56665475D02*
X50590533Y-56760713D01*
D11*
%TO.C,R4*%
X66765000Y-52727064D02*
X66765000Y-52272936D01*
X68235000Y-52727064D02*
X68235000Y-52272936D01*
%TO.C,R2*%
X57015000Y-52727064D02*
X57015000Y-52272936D01*
X58485000Y-52727064D02*
X58485000Y-52272936D01*
%TO.C,C3*%
X61765000Y-57298752D02*
X61765000Y-56776248D01*
X63235000Y-57298752D02*
X63235000Y-56776248D01*
%TO.C,R3*%
X61765000Y-52727064D02*
X61765000Y-52272936D01*
X63235000Y-52727064D02*
X63235000Y-52272936D01*
%TO.C,Q2*%
X55060000Y-62362500D02*
X55060000Y-60562500D01*
X55060000Y-62362500D02*
X55060000Y-63162500D01*
X51940000Y-62362500D02*
X51940000Y-61562500D01*
X51940000Y-62362500D02*
X51940000Y-63162500D01*
%TO.C,Q1*%
X68110000Y-62362500D02*
X68110000Y-60562500D01*
X68110000Y-62362500D02*
X68110000Y-63162500D01*
X64990000Y-62362500D02*
X64990000Y-61562500D01*
X64990000Y-62362500D02*
X64990000Y-63162500D01*
%TO.C,C2*%
X58485000Y-56776248D02*
X58485000Y-57298752D01*
X57015000Y-56776248D02*
X57015000Y-57298752D01*
%TO.C,R1*%
X51765000Y-52727064D02*
X51765000Y-52272936D01*
X53235000Y-52727064D02*
X53235000Y-52272936D01*
%TO.C,D2*%
X66540000Y-58885000D02*
X68460000Y-58885000D01*
X68460000Y-58885000D02*
X68460000Y-56025000D01*
X66540000Y-56025000D02*
X66540000Y-58885000D01*
%TO.C,D1*%
X51540000Y-58835000D02*
X53460000Y-58835000D01*
X53460000Y-58835000D02*
X53460000Y-55975000D01*
X51540000Y-55975000D02*
X51540000Y-58835000D01*
%TD*%
M02*
