%TF.GenerationSoftware,KiCad,Pcbnew,7.0.10*%
%TF.CreationDate,2024-01-10T15:24:57-03:00*%
%TF.ProjectId,osc,6f73632e-6b69-4636-9164-5f7063625858,rev?*%
%TF.SameCoordinates,Original*%
%TF.FileFunction,Copper,L1,Top*%
%TF.FilePolarity,Positive*%
%FSLAX46Y46*%
G04 Gerber Fmt 4.6, Leading zero omitted, Abs format (unit mm)*
G04 Created by KiCad (PCBNEW 7.0.10) date 2024-01-10 15:24:57*
%MOMM*%
%LPD*%
G01*
G04 APERTURE LIST*
G04 Aperture macros list*
%AMRoundRect*
0 Rectangle with rounded corners*
0 $1 Rounding radius*
0 $2 $3 $4 $5 $6 $7 $8 $9 X,Y pos of 4 corners*
0 Add a 4 corners polygon primitive as box body*
4,1,4,$2,$3,$4,$5,$6,$7,$8,$9,$2,$3,0*
0 Add four circle primitives for the rounded corners*
1,1,$1+$1,$2,$3*
1,1,$1+$1,$4,$5*
1,1,$1+$1,$6,$7*
1,1,$1+$1,$8,$9*
0 Add four rect primitives between the rounded corners*
20,1,$1+$1,$2,$3,$4,$5,0*
20,1,$1+$1,$4,$5,$6,$7,0*
20,1,$1+$1,$6,$7,$8,$9,0*
20,1,$1+$1,$8,$9,$2,$3,0*%
G04 Aperture macros list end*
%TA.AperFunction,SMDPad,CuDef*%
%ADD10RoundRect,0.250000X0.450000X-0.350000X0.450000X0.350000X-0.450000X0.350000X-0.450000X-0.350000X0*%
%TD*%
%TA.AperFunction,SMDPad,CuDef*%
%ADD11RoundRect,0.250000X0.475000X-0.337500X0.475000X0.337500X-0.475000X0.337500X-0.475000X-0.337500X0*%
%TD*%
%TA.AperFunction,SMDPad,CuDef*%
%ADD12RoundRect,0.150000X-0.150000X0.512500X-0.150000X-0.512500X0.150000X-0.512500X0.150000X0.512500X0*%
%TD*%
%TA.AperFunction,SMDPad,CuDef*%
%ADD13RoundRect,0.250000X-0.475000X0.337500X-0.475000X-0.337500X0.475000X-0.337500X0.475000X0.337500X0*%
%TD*%
%TA.AperFunction,SMDPad,CuDef*%
%ADD14RoundRect,0.250000X-0.250000X-0.750000X0.250000X-0.750000X0.250000X0.750000X-0.250000X0.750000X0*%
%TD*%
%TA.AperFunction,SMDPad,CuDef*%
%ADD15RoundRect,0.250000X0.450000X-0.325000X0.450000X0.325000X-0.450000X0.325000X-0.450000X-0.325000X0*%
%TD*%
%TA.AperFunction,Conductor*%
%ADD16C,0.250000*%
%TD*%
G04 APERTURE END LIST*
D10*
%TO.P,R4,1*%
%TO.N,Net-(D2-A)*%
X67500000Y-53500000D03*
%TO.P,R4,2*%
%TO.N,/+3.3*%
X67500000Y-51500000D03*
%TD*%
%TO.P,R2,1*%
%TO.N,Net-(Q2-B)*%
X57750000Y-53500000D03*
%TO.P,R2,2*%
%TO.N,/+3.3*%
X57750000Y-51500000D03*
%TD*%
D11*
%TO.P,C3,1*%
%TO.N,Net-(D1-K)*%
X62500000Y-58075000D03*
%TO.P,C3,2*%
%TO.N,Net-(Q1-B)*%
X62500000Y-56000000D03*
%TD*%
D10*
%TO.P,R3,1*%
%TO.N,Net-(Q1-B)*%
X62500000Y-53500000D03*
%TO.P,R3,2*%
%TO.N,/+3.3*%
X62500000Y-51500000D03*
%TD*%
D12*
%TO.P,Q2,1,C*%
%TO.N,Net-(D1-K)*%
X54450000Y-61225000D03*
%TO.P,Q2,2,B*%
%TO.N,Net-(Q2-B)*%
X52550000Y-61225000D03*
%TO.P,Q2,3,E*%
%TO.N,GND*%
X53500000Y-63500000D03*
%TD*%
%TO.P,Q1,1,C*%
%TO.N,Net-(D2-K)*%
X67500000Y-61225000D03*
%TO.P,Q1,2,B*%
%TO.N,Net-(Q1-B)*%
X65600000Y-61225000D03*
%TO.P,Q1,3,E*%
%TO.N,GND*%
X66550000Y-63500000D03*
%TD*%
D13*
%TO.P,C2,1*%
%TO.N,Net-(Q2-B)*%
X57750000Y-56000000D03*
%TO.P,C2,2*%
%TO.N,Net-(D2-K)*%
X57750000Y-58075000D03*
%TD*%
D14*
%TO.P,REF\u002A\u002A,1*%
%TO.N,GND*%
X63200000Y-63600000D03*
%TD*%
D10*
%TO.P,R1,1*%
%TO.N,Net-(D1-A)*%
X52500000Y-53500000D03*
%TO.P,R1,2*%
%TO.N,/+3.3*%
X52500000Y-51500000D03*
%TD*%
D15*
%TO.P,D2,1,K*%
%TO.N,Net-(D2-K)*%
X67500000Y-58050000D03*
%TO.P,D2,2,A*%
%TO.N,Net-(D2-A)*%
X67500000Y-56000000D03*
%TD*%
D14*
%TO.P,REF\u002A\u002A,1*%
%TO.N,/+3.3*%
X57200000Y-63600000D03*
%TD*%
D15*
%TO.P,D1,1,K*%
%TO.N,Net-(D1-K)*%
X52500000Y-58000000D03*
%TO.P,D1,2,A*%
%TO.N,Net-(D1-A)*%
X52500000Y-55950000D03*
%TD*%
D16*
%TO.N,Net-(Q2-B)*%
X57750000Y-53500000D02*
X57750000Y-56000000D01*
X54500000Y-56750000D02*
X55250000Y-56000000D01*
X52550000Y-60450000D02*
X54500000Y-58500000D01*
X55250000Y-56000000D02*
X57750000Y-56000000D01*
X52550000Y-61225000D02*
X52550000Y-60450000D01*
X54500000Y-58500000D02*
X54500000Y-56750000D01*
%TO.N,Net-(D2-K)*%
X63220100Y-57162500D02*
X64500000Y-58442400D01*
X58662500Y-57162500D02*
X63220100Y-57162500D01*
X67500000Y-62250000D02*
X67500000Y-61225000D01*
X65000000Y-62500000D02*
X67250000Y-62500000D01*
X67500000Y-58050000D02*
X67500000Y-61225000D01*
X64500000Y-58442400D02*
X64500000Y-62000000D01*
X67250000Y-62500000D02*
X67500000Y-62250000D01*
X57750000Y-58075000D02*
X58662500Y-57162500D01*
X64500000Y-62000000D02*
X65000000Y-62500000D01*
%TO.N,Net-(D1-K)*%
X51220000Y-58000000D02*
X52500000Y-58000000D01*
X60825000Y-59750000D02*
X62500000Y-58075000D01*
X53425000Y-62250000D02*
X54450000Y-61225000D01*
X55925000Y-59750000D02*
X60825000Y-59750000D01*
X54450000Y-61225000D02*
X55925000Y-59750000D01*
X50800000Y-60960000D02*
X50800000Y-58420000D01*
X50800000Y-58420000D02*
X51220000Y-58000000D01*
X52090000Y-62250000D02*
X53425000Y-62250000D01*
X52090000Y-62250000D02*
X50800000Y-60960000D01*
%TO.N,Net-(Q1-B)*%
X63000000Y-56000000D02*
X65600000Y-58600000D01*
X65600000Y-58600000D02*
X65600000Y-61225000D01*
X62500000Y-56000000D02*
X63000000Y-56000000D01*
X62500000Y-53500000D02*
X62500000Y-56000000D01*
%TO.N,Net-(D1-A)*%
X52500000Y-53500000D02*
X52500000Y-55950000D01*
%TO.N,Net-(D2-A)*%
X67500000Y-53500000D02*
X67500000Y-56000000D01*
%TO.N,/+3.3*%
X51700000Y-64700000D02*
X50300000Y-63300000D01*
X51000000Y-51500000D02*
X52500000Y-51500000D01*
X50300000Y-63300000D02*
X50300000Y-52200000D01*
X56100000Y-64700000D02*
X51700000Y-64700000D01*
X62500000Y-51500000D02*
X67500000Y-51500000D01*
X52500000Y-51500000D02*
X57750000Y-51500000D01*
X57200000Y-63600000D02*
X56100000Y-64700000D01*
X50300000Y-52200000D02*
X51000000Y-51500000D01*
X57750000Y-51500000D02*
X62500000Y-51500000D01*
%TD*%
%TA.AperFunction,Conductor*%
%TO.N,GND*%
G36*
X69942539Y-50020185D02*
G01*
X69988294Y-50072989D01*
X69999500Y-50124500D01*
X69999500Y-64875500D01*
X69979815Y-64942539D01*
X69927011Y-64988294D01*
X69875500Y-64999500D01*
X64152754Y-64999500D01*
X64085715Y-64979815D01*
X64039960Y-64927011D01*
X64030016Y-64857853D01*
X64047215Y-64810403D01*
X64134356Y-64669124D01*
X64134358Y-64669119D01*
X64189505Y-64502697D01*
X64189506Y-64502690D01*
X64199999Y-64399986D01*
X64200000Y-64399973D01*
X64200000Y-63850000D01*
X62200001Y-63850000D01*
X62200001Y-64399986D01*
X62210494Y-64502697D01*
X62265641Y-64669119D01*
X62265643Y-64669124D01*
X62352785Y-64810403D01*
X62371225Y-64877796D01*
X62350302Y-64944459D01*
X62296660Y-64989229D01*
X62247246Y-64999500D01*
X58153341Y-64999500D01*
X58086302Y-64979815D01*
X58040547Y-64927011D01*
X58030603Y-64857853D01*
X58047802Y-64810404D01*
X58134810Y-64669340D01*
X58134814Y-64669334D01*
X58189999Y-64502797D01*
X58200500Y-64400009D01*
X58200499Y-63750000D01*
X65750000Y-63750000D01*
X65750000Y-64078149D01*
X65752899Y-64114989D01*
X65752900Y-64114995D01*
X65798716Y-64272693D01*
X65798717Y-64272696D01*
X65882314Y-64414052D01*
X65882321Y-64414061D01*
X65998438Y-64530178D01*
X65998447Y-64530185D01*
X66139801Y-64613781D01*
X66297514Y-64659600D01*
X66297511Y-64659600D01*
X66299998Y-64659795D01*
X66300000Y-64659795D01*
X66300000Y-63750000D01*
X66800000Y-63750000D01*
X66800000Y-64659795D01*
X66800001Y-64659795D01*
X66802486Y-64659600D01*
X66960198Y-64613781D01*
X67101552Y-64530185D01*
X67101561Y-64530178D01*
X67217678Y-64414061D01*
X67217685Y-64414052D01*
X67301282Y-64272696D01*
X67301283Y-64272693D01*
X67347099Y-64114995D01*
X67347100Y-64114989D01*
X67349999Y-64078149D01*
X67350000Y-64078134D01*
X67350000Y-63750000D01*
X66800000Y-63750000D01*
X66300000Y-63750000D01*
X65750000Y-63750000D01*
X58200499Y-63750000D01*
X58200499Y-63350000D01*
X62200000Y-63350000D01*
X62950000Y-63350000D01*
X62950000Y-62100000D01*
X62949999Y-62099999D01*
X62900029Y-62100000D01*
X62900011Y-62100001D01*
X62797302Y-62110494D01*
X62630880Y-62165641D01*
X62630875Y-62165643D01*
X62481654Y-62257684D01*
X62357684Y-62381654D01*
X62265643Y-62530875D01*
X62265641Y-62530880D01*
X62210494Y-62697302D01*
X62210493Y-62697309D01*
X62200000Y-62800013D01*
X62200000Y-63350000D01*
X58200499Y-63350000D01*
X58200499Y-62799992D01*
X58197553Y-62771157D01*
X58189999Y-62697203D01*
X58189998Y-62697200D01*
X58173049Y-62646051D01*
X58134814Y-62530666D01*
X58042712Y-62381344D01*
X57918656Y-62257288D01*
X57825888Y-62200069D01*
X57769336Y-62165187D01*
X57769331Y-62165185D01*
X57767862Y-62164698D01*
X57602797Y-62110001D01*
X57602795Y-62110000D01*
X57500010Y-62099500D01*
X56899998Y-62099500D01*
X56899980Y-62099501D01*
X56797203Y-62110000D01*
X56797200Y-62110001D01*
X56630668Y-62165185D01*
X56630663Y-62165187D01*
X56481342Y-62257289D01*
X56357289Y-62381342D01*
X56265187Y-62530663D01*
X56265185Y-62530668D01*
X56265115Y-62530880D01*
X56210001Y-62697203D01*
X56210001Y-62697204D01*
X56210000Y-62697204D01*
X56199500Y-62799983D01*
X56199500Y-63664546D01*
X56179815Y-63731585D01*
X56163181Y-63752227D01*
X55877228Y-64038181D01*
X55815905Y-64071666D01*
X55789547Y-64074500D01*
X54424000Y-64074500D01*
X54356961Y-64054815D01*
X54311206Y-64002011D01*
X54300000Y-63950500D01*
X54300000Y-63750000D01*
X52700000Y-63750000D01*
X52700000Y-63950500D01*
X52680315Y-64017539D01*
X52627511Y-64063294D01*
X52576000Y-64074500D01*
X52010452Y-64074500D01*
X51943413Y-64054815D01*
X51922771Y-64038181D01*
X50961819Y-63077228D01*
X50928334Y-63015905D01*
X50925500Y-62989547D01*
X50925500Y-62269452D01*
X50945185Y-62202413D01*
X50997989Y-62156658D01*
X51067147Y-62146714D01*
X51130703Y-62175739D01*
X51137176Y-62181766D01*
X51381305Y-62425896D01*
X51589197Y-62633788D01*
X51599022Y-62646051D01*
X51599243Y-62645869D01*
X51604211Y-62651874D01*
X51604213Y-62651876D01*
X51604214Y-62651877D01*
X51625043Y-62671437D01*
X51653222Y-62697899D01*
X51656021Y-62700612D01*
X51675522Y-62720114D01*
X51675526Y-62720117D01*
X51675529Y-62720120D01*
X51678702Y-62722581D01*
X51687574Y-62730159D01*
X51719418Y-62760062D01*
X51736976Y-62769714D01*
X51753235Y-62780395D01*
X51769064Y-62792673D01*
X51809155Y-62810021D01*
X51819626Y-62815151D01*
X51842180Y-62827550D01*
X51857902Y-62836194D01*
X51857904Y-62836195D01*
X51857908Y-62836197D01*
X51877316Y-62841180D01*
X51895719Y-62847481D01*
X51914101Y-62855436D01*
X51914102Y-62855436D01*
X51914104Y-62855437D01*
X51957250Y-62862270D01*
X51968672Y-62864636D01*
X52010981Y-62875500D01*
X52031016Y-62875500D01*
X52050415Y-62877027D01*
X52070196Y-62880160D01*
X52110939Y-62876308D01*
X52113672Y-62876050D01*
X52125342Y-62875500D01*
X52576000Y-62875500D01*
X52643039Y-62895185D01*
X52688794Y-62947989D01*
X52700000Y-62999500D01*
X52700000Y-63250000D01*
X54300000Y-63250000D01*
X54300000Y-62921865D01*
X54299999Y-62921850D01*
X54297100Y-62885010D01*
X54297099Y-62885004D01*
X54251283Y-62727306D01*
X54251282Y-62727303D01*
X54163712Y-62579229D01*
X54165433Y-62578211D01*
X54143743Y-62522955D01*
X54157428Y-62454438D01*
X54205983Y-62404197D01*
X54267258Y-62388000D01*
X54665686Y-62388000D01*
X54665694Y-62388000D01*
X54702569Y-62385098D01*
X54702571Y-62385097D01*
X54702573Y-62385097D01*
X54749969Y-62371327D01*
X54860398Y-62339244D01*
X55001865Y-62255581D01*
X55118081Y-62139365D01*
X55201744Y-61997898D01*
X55237595Y-61874500D01*
X55247597Y-61840073D01*
X55247598Y-61840067D01*
X55250499Y-61803201D01*
X55250500Y-61803194D01*
X55250500Y-61360452D01*
X55270185Y-61293413D01*
X55286819Y-61272771D01*
X56147772Y-60411819D01*
X56209095Y-60378334D01*
X56235453Y-60375500D01*
X60742257Y-60375500D01*
X60757877Y-60377224D01*
X60757904Y-60376939D01*
X60765660Y-60377671D01*
X60765667Y-60377673D01*
X60832873Y-60375561D01*
X60836768Y-60375500D01*
X60864346Y-60375500D01*
X60864350Y-60375500D01*
X60868324Y-60374997D01*
X60879963Y-60374080D01*
X60923627Y-60372709D01*
X60942869Y-60367117D01*
X60961912Y-60363174D01*
X60981792Y-60360664D01*
X61022401Y-60344585D01*
X61033444Y-60340803D01*
X61075390Y-60328618D01*
X61092629Y-60318422D01*
X61110103Y-60309862D01*
X61128727Y-60302488D01*
X61128727Y-60302487D01*
X61128732Y-60302486D01*
X61164083Y-60276800D01*
X61173814Y-60270408D01*
X61211420Y-60248170D01*
X61225589Y-60233999D01*
X61240379Y-60221368D01*
X61256587Y-60209594D01*
X61284438Y-60175926D01*
X61292279Y-60167309D01*
X62260271Y-59199318D01*
X62321594Y-59165833D01*
X62347952Y-59162999D01*
X63025002Y-59162999D01*
X63025008Y-59162999D01*
X63127797Y-59152499D01*
X63294334Y-59097314D01*
X63443656Y-59005212D01*
X63567712Y-58881156D01*
X63644961Y-58755913D01*
X63696909Y-58709189D01*
X63765871Y-58697966D01*
X63829953Y-58725809D01*
X63868810Y-58783878D01*
X63874500Y-58821010D01*
X63874500Y-61917255D01*
X63872775Y-61932872D01*
X63873061Y-61932899D01*
X63872326Y-61940665D01*
X63874439Y-62007872D01*
X63874500Y-62011767D01*
X63874500Y-62028841D01*
X63854815Y-62095880D01*
X63802011Y-62141635D01*
X63732853Y-62151579D01*
X63711496Y-62146547D01*
X63602697Y-62110494D01*
X63602690Y-62110493D01*
X63499986Y-62100000D01*
X63450000Y-62100000D01*
X63450000Y-63350000D01*
X64199999Y-63350000D01*
X64199999Y-62883951D01*
X64219684Y-62816912D01*
X64272488Y-62771157D01*
X64341646Y-62761213D01*
X64405202Y-62790238D01*
X64411680Y-62796270D01*
X64499194Y-62883784D01*
X64509019Y-62896048D01*
X64509240Y-62895866D01*
X64514210Y-62901874D01*
X64563239Y-62947915D01*
X64566036Y-62950626D01*
X64585529Y-62970119D01*
X64588696Y-62972576D01*
X64597575Y-62980160D01*
X64629415Y-63010060D01*
X64629417Y-63010061D01*
X64629418Y-63010062D01*
X64646976Y-63019714D01*
X64663235Y-63030395D01*
X64679064Y-63042673D01*
X64719147Y-63060018D01*
X64729634Y-63065156D01*
X64767904Y-63086195D01*
X64767908Y-63086197D01*
X64767912Y-63086198D01*
X64787311Y-63091179D01*
X64805722Y-63097483D01*
X64824097Y-63105435D01*
X64824100Y-63105435D01*
X64824105Y-63105438D01*
X64867254Y-63112271D01*
X64878680Y-63114638D01*
X64920981Y-63125500D01*
X64941016Y-63125500D01*
X64960413Y-63127026D01*
X64980196Y-63130160D01*
X65023675Y-63126050D01*
X65035344Y-63125500D01*
X65626000Y-63125500D01*
X65693039Y-63145185D01*
X65738794Y-63197989D01*
X65750000Y-63249500D01*
X65750000Y-63250000D01*
X67350000Y-63250000D01*
X67350000Y-63217419D01*
X67369685Y-63150380D01*
X67422489Y-63104625D01*
X67428328Y-63102136D01*
X67447407Y-63094582D01*
X67458444Y-63090803D01*
X67500390Y-63078618D01*
X67517629Y-63068422D01*
X67535103Y-63059862D01*
X67553727Y-63052488D01*
X67553727Y-63052487D01*
X67553732Y-63052486D01*
X67589083Y-63026800D01*
X67598814Y-63020408D01*
X67636420Y-62998170D01*
X67650589Y-62983999D01*
X67665379Y-62971368D01*
X67681587Y-62959594D01*
X67709437Y-62925927D01*
X67717268Y-62917320D01*
X67883793Y-62750796D01*
X67896049Y-62740979D01*
X67895867Y-62740758D01*
X67901874Y-62735788D01*
X67901874Y-62735787D01*
X67901877Y-62735786D01*
X67947935Y-62686738D01*
X67950583Y-62684006D01*
X67970120Y-62664471D01*
X67972576Y-62661303D01*
X67980156Y-62652427D01*
X68010062Y-62620582D01*
X68019713Y-62603024D01*
X68030396Y-62586761D01*
X68042673Y-62570936D01*
X68060021Y-62530844D01*
X68065151Y-62520371D01*
X68086197Y-62482092D01*
X68091180Y-62462680D01*
X68097481Y-62444280D01*
X68105437Y-62425896D01*
X68112270Y-62382748D01*
X68114633Y-62371338D01*
X68125500Y-62329019D01*
X68125500Y-62308983D01*
X68127027Y-62289582D01*
X68129174Y-62276032D01*
X68130160Y-62269804D01*
X68127661Y-62243368D01*
X68140947Y-62174774D01*
X68163431Y-62144014D01*
X68168081Y-62139365D01*
X68251744Y-61997898D01*
X68287595Y-61874500D01*
X68297597Y-61840073D01*
X68297598Y-61840067D01*
X68300499Y-61803201D01*
X68300500Y-61803194D01*
X68300500Y-60646806D01*
X68297598Y-60609931D01*
X68251744Y-60452102D01*
X68168081Y-60310635D01*
X68168079Y-60310633D01*
X68168076Y-60310629D01*
X68161819Y-60304372D01*
X68128334Y-60243049D01*
X68125500Y-60216691D01*
X68125500Y-59197016D01*
X68145185Y-59129977D01*
X68197989Y-59084222D01*
X68210488Y-59079313D01*
X68269334Y-59059814D01*
X68418656Y-58967712D01*
X68542712Y-58843656D01*
X68634814Y-58694334D01*
X68689999Y-58527797D01*
X68700500Y-58425009D01*
X68700499Y-57674992D01*
X68695391Y-57624992D01*
X68689999Y-57572203D01*
X68689998Y-57572200D01*
X68634814Y-57405666D01*
X68542712Y-57256344D01*
X68418656Y-57132288D01*
X68415819Y-57130538D01*
X68414283Y-57128830D01*
X68412989Y-57127807D01*
X68413163Y-57127585D01*
X68369096Y-57078594D01*
X68357872Y-57009632D01*
X68385713Y-56945549D01*
X68415817Y-56919462D01*
X68418656Y-56917712D01*
X68542712Y-56793656D01*
X68634814Y-56644334D01*
X68689999Y-56477797D01*
X68700500Y-56375009D01*
X68700499Y-55624992D01*
X68696178Y-55582696D01*
X68689999Y-55522203D01*
X68689998Y-55522200D01*
X68634814Y-55355666D01*
X68542712Y-55206344D01*
X68418656Y-55082288D01*
X68269334Y-54990186D01*
X68210493Y-54970688D01*
X68153051Y-54930916D01*
X68126228Y-54866400D01*
X68125500Y-54852983D01*
X68125500Y-54672016D01*
X68145185Y-54604977D01*
X68197989Y-54559222D01*
X68210488Y-54554313D01*
X68269334Y-54534814D01*
X68418656Y-54442712D01*
X68542712Y-54318656D01*
X68634814Y-54169334D01*
X68689999Y-54002797D01*
X68700500Y-53900009D01*
X68700499Y-53099992D01*
X68689999Y-52997203D01*
X68634814Y-52830666D01*
X68542712Y-52681344D01*
X68449049Y-52587681D01*
X68415564Y-52526358D01*
X68420548Y-52456666D01*
X68449049Y-52412319D01*
X68542712Y-52318656D01*
X68634814Y-52169334D01*
X68689999Y-52002797D01*
X68700500Y-51900009D01*
X68700499Y-51099992D01*
X68698309Y-51078557D01*
X68689999Y-50997203D01*
X68689998Y-50997200D01*
X68683179Y-50976621D01*
X68634814Y-50830666D01*
X68542712Y-50681344D01*
X68418656Y-50557288D01*
X68269334Y-50465186D01*
X68102797Y-50410001D01*
X68102795Y-50410000D01*
X68000010Y-50399500D01*
X66999998Y-50399500D01*
X66999980Y-50399501D01*
X66897203Y-50410000D01*
X66897200Y-50410001D01*
X66730668Y-50465185D01*
X66730663Y-50465187D01*
X66581342Y-50557289D01*
X66457289Y-50681342D01*
X66374481Y-50815597D01*
X66322533Y-50862321D01*
X66268942Y-50874500D01*
X63731058Y-50874500D01*
X63664019Y-50854815D01*
X63625519Y-50815597D01*
X63542712Y-50681344D01*
X63418656Y-50557288D01*
X63269334Y-50465186D01*
X63102797Y-50410001D01*
X63102795Y-50410000D01*
X63000010Y-50399500D01*
X61999998Y-50399500D01*
X61999980Y-50399501D01*
X61897203Y-50410000D01*
X61897200Y-50410001D01*
X61730668Y-50465185D01*
X61730663Y-50465187D01*
X61581342Y-50557289D01*
X61457289Y-50681342D01*
X61374481Y-50815597D01*
X61322533Y-50862321D01*
X61268942Y-50874500D01*
X58981058Y-50874500D01*
X58914019Y-50854815D01*
X58875519Y-50815597D01*
X58792712Y-50681344D01*
X58668656Y-50557288D01*
X58519334Y-50465186D01*
X58352797Y-50410001D01*
X58352795Y-50410000D01*
X58250010Y-50399500D01*
X57249998Y-50399500D01*
X57249980Y-50399501D01*
X57147203Y-50410000D01*
X57147200Y-50410001D01*
X56980668Y-50465185D01*
X56980663Y-50465187D01*
X56831342Y-50557289D01*
X56707289Y-50681342D01*
X56624481Y-50815597D01*
X56572533Y-50862321D01*
X56518942Y-50874500D01*
X53731058Y-50874500D01*
X53664019Y-50854815D01*
X53625519Y-50815597D01*
X53542712Y-50681344D01*
X53418656Y-50557288D01*
X53269334Y-50465186D01*
X53102797Y-50410001D01*
X53102795Y-50410000D01*
X53000010Y-50399500D01*
X51999998Y-50399500D01*
X51999980Y-50399501D01*
X51897203Y-50410000D01*
X51897200Y-50410001D01*
X51730668Y-50465185D01*
X51730663Y-50465187D01*
X51581342Y-50557289D01*
X51457289Y-50681342D01*
X51374481Y-50815597D01*
X51322533Y-50862321D01*
X51268942Y-50874500D01*
X51082737Y-50874500D01*
X51067120Y-50872776D01*
X51067093Y-50873062D01*
X51059331Y-50872327D01*
X50992144Y-50874439D01*
X50988250Y-50874500D01*
X50960650Y-50874500D01*
X50956962Y-50874965D01*
X50956649Y-50875005D01*
X50945031Y-50875918D01*
X50901372Y-50877290D01*
X50901369Y-50877291D01*
X50882126Y-50882881D01*
X50863083Y-50886825D01*
X50843204Y-50889336D01*
X50843203Y-50889337D01*
X50802593Y-50905415D01*
X50791548Y-50909197D01*
X50749608Y-50921383D01*
X50749604Y-50921385D01*
X50732365Y-50931580D01*
X50714898Y-50940137D01*
X50696269Y-50947512D01*
X50696267Y-50947514D01*
X50660926Y-50973189D01*
X50651168Y-50979599D01*
X50613580Y-51001828D01*
X50599408Y-51016000D01*
X50584623Y-51028628D01*
X50568412Y-51040407D01*
X50540571Y-51074059D01*
X50532711Y-51082696D01*
X50212181Y-51403227D01*
X50150858Y-51436712D01*
X50081167Y-51431728D01*
X50025233Y-51389857D01*
X50000816Y-51324392D01*
X50000500Y-51315546D01*
X50000500Y-50124500D01*
X50020185Y-50057461D01*
X50072989Y-50011706D01*
X50124500Y-50000500D01*
X69875500Y-50000500D01*
X69942539Y-50020185D01*
G37*
%TD.AperFunction*%
%TD*%
M02*
